#N canvas 341 121 450 300 12;
#X obj 102 185 expr~ sin(\$1);
#X obj 101 165 phasor~;
#X obj 99 233 outlet~;
#X obj 99 19 loadbang;
#X msg 107 47 args;
#X obj 106 74 pdcontrol;
#X msg 114 116 \$1;
#X connect 0 0 2 0;
#X connect 1 0 0 0;
#X connect 3 0 4 0;
#X connect 4 0 5 0;
#X connect 5 0 6 0;
#X connect 6 0 1 0;
