#N canvas 151 184 450 300 12;
#X obj 65 264 outlet~;
#X obj 72 155 directosc;
#X obj 72 117 * 50;
#X obj 74 200 /~;
#X obj 126 65 float \$1;
#X obj 123 32 loadbang;
#X connect 1 0 3 0;
#X connect 2 0 1 0;
#X connect 3 0 0 0;
#X connect 4 0 2 0;
#X connect 4 0 3 1;
#X connect 5 0 4 0;
