#N canvas 216 106 780 643 10;
#X obj 140 20 *~ 1;
#X obj 140 50 *~ 0.5;
#X obj 140 80 *~ 0.333333;
#X obj 140 110 *~ 0.25;
#X obj 140 140 *~ 0.2;
#X obj 140 170 *~ 0.166667;
#X obj 140 200 *~ 0.142857;
#X obj 140 230 *~ 0.125;
#X obj 140 260 *~ 0.111111;
#X obj 140 290 *~ 0.1;
#X obj 300 350 dac~ 1;
#X obj 10 20 directosc 50;
#X obj 10 50 directosc 100;
#X obj 10 80 directosc 150;
#X obj 10 110 directosc 200;
#X obj 10 140 directosc 250;
#X obj 10 170 directosc 300;
#X obj 10 200 directosc 350;
#X obj 10 230 directosc 400;
#X obj 10 260 directosc 450;
#X obj 10 290 directosc 500;
#X connect 0 0 10 0;
#X connect 1 0 10 0;
#X connect 2 0 10 0;
#X connect 3 0 10 0;
#X connect 4 0 10 0;
#X connect 5 0 10 0;
#X connect 6 0 10 0;
#X connect 7 0 10 0;
#X connect 8 0 10 0;
#X connect 9 0 10 0;
#X connect 11 0 0 0;
#X connect 12 0 1 0;
#X connect 13 0 2 0;
#X connect 14 0 3 0;
#X connect 15 0 4 0;
#X connect 16 0 5 0;
#X connect 17 0 6 0;
#X connect 18 0 7 0;
#X connect 19 0 8 0;
#X connect 20 0 9 0;
